<mxfile host="app.diagrams.net" modified="2024-01-29T06:42:12.839Z" agent="Mozilla/5.0 (Windows NT 10.0; Win64; x64) AppleWebKit/537.36 (KHTML, like Gecko) Chrome/120.0.0.0 Safari/537.36" version="23.0.2" etag="g4ec_xvM02TggsNvC8mg" type="github">
  <diagram name="Halaman-1" id="gB_6igwbtrUoW2QO8rvR">
    <mxGraphModel>
      <root>
        <mxCell id="0" />
        <mxCell id="1" parent="0" />
      </root>
    </mxGraphModel>
  </diagram>
</mxfile>
